# xmcd
#
# Track frame offsets: 
#        150
#        19960
#        30458
#        51206
#        79582
#        89325
#        106133
#        122923
#        137686
#        150437
#        172651
#        178833
#        198606
#        211642
#        224408
#
# Disc length: 3382 seconds
#
# Revision: 1
# Processed by: cddbd v1.5.2PL0 Copyright (c) Steve Scherf et al.
# Submitted via: ExactAudioCopy v1.0b1
#
DISCID=c20d340f
DTITLE=Jean-Sebastien Simonoviez - Crossing life and strings
DYEAR=2007
DGENRE=Jazz
TTITLE0=Welcome
TTITLE1=Om #1
TTITLE2=Leonard
TTITLE3=It Changes (the world)
TTITLE4=Om #2
TTITLE5=Leonor theme
TTITLE6=Cavatina
TTITLE7=A une passante
TTITLE8=Diaguily song
TTITLE9=The prayer
TTITLE10=Om #3
TTITLE11=My Ship
TTITLE12=Le Cosmos - Maelstrom
TTITLE13=Le Cosmos - Genese
TTITLE14=Le Cosmos - Ellipses
EXTD=
EXTT0=
EXTT1=
EXTT2=
EXTT3=
EXTT4=
EXTT5=
EXTT6=
EXTT7=
EXTT8=
EXTT9=
EXTT10=
EXTT11=
EXTT12=
EXTT13=
EXTT14=
PLAYORDER=
